<svg xmlns="http://www.w3.org/2000/svg" viewBox="0 0 13.93 144.7"><defs><style>.cls-1{fill:#e581b4;}.cls-2,.cls-7,.cls-8{opacity:0.2;}.cls-3{fill:#f7ab24;}.cls-4{fill:#d0d2d2;}.cls-5{fill:#e1b16c;}.cls-6,.cls-8{fill:#4c4e50;}.cls-7{fill:#fff;}</style></defs><title>four</title><g id="Layer_2" data-name="Layer 2"><g id="Layer_1-2" data-name="Layer 1"><path class="cls-1" d="M3.06,132.69h9a0,0,0,0,1,0,0v13.9a0,0,0,0,1,0,0h-9a1.17,1.17,0,0,1-1.17-1.17V133.86a1.17,1.17,0,0,1,1.17-1.17Z" transform="translate(-132.69 146.59) rotate(-90)"/><path class="cls-2" d="M7.11,137.91H17.23a0,0,0,0,1,0,0v3.47a0,0,0,0,1,0,0h-9a1.17,1.17,0,0,1-1.17-1.17v-2.31A0,0,0,0,1,7.11,137.91Z" transform="translate(-127.48 151.81) rotate(-90)"/><rect class="cls-3" x="-31.38" y="66.03" width="76.69" height="13.93" transform="translate(-66.03 79.96) rotate(-90)"/><rect class="cls-4" x="-4.67" y="116.01" width="23.24" height="13.9" transform="translate(-116.01 129.91) rotate(-90)"/><polygon class="cls-5" points="4.83 10.6 9.09 10.6 13.93 34.65 0 34.65 4.83 10.6"/><polyline class="cls-6" points="4.84 10.6 6.97 0 9.09 10.59"/><path class="cls-2" d="M13.92,34.65,7,0V12.2l3.47,22.45v99.93H13.9v9"/><polyline class="cls-7" points="6.97 12.2 6.95 0 0 34.65 0.01 144.7 3.49 144.7 3.49 34.65"/><line class="cls-8" x1="10.43" y1="34.65" x2="7.42" y2="4.5"/></g></g></svg>