<svg xmlns="http://www.w3.org/2000/svg" viewBox="0 0 96.76 96.76"><defs><style>.cls-1{fill:#fff;}</style></defs><title>one</title><g id="Layer_2" data-name="Layer 2"><g id="Layer_1-2" data-name="Layer 1"><path d="M48.38,95.15A46.77,46.77,0,1,1,95.15,48.38,46.82,46.82,0,0,1,48.38,95.15Z"/><path class="cls-1" d="M48.38,3.23A45.16,45.16,0,1,1,3.23,48.38,45.21,45.21,0,0,1,48.38,3.23m0-3.23A48.38,48.38,0,1,0,96.76,48.38,48.38,48.38,0,0,0,48.38,0Z"/><path class="cls-1" d="M48.38,17.59c24.9,0,45.16,13.81,45.16,30.79S73.28,79.17,48.38,79.17,3.23,65.36,3.23,48.38,23.48,17.59,48.38,17.59m0-3.23C21.66,14.36,0,29.59,0,48.38s21.66,34,48.38,34,48.38-15.23,48.38-34-21.66-34-48.38-34Z"/><path d="M48.38,60.57c-27.56,0-46.77-6.42-46.77-12.18S20.82,36.2,48.38,36.2s46.77,6.42,46.77,12.18S75.94,60.57,48.38,60.57Z"/><path class="cls-1" d="M48.38,37.81c12.63,0,24.47,1.39,33.33,3.92,9.7,2.77,11.83,5.74,11.83,6.65S91.41,52.27,81.71,55C72.85,57.56,61,59,48.38,59S23.91,57.56,15.06,55c-9.7-2.77-11.83-5.74-11.83-6.65s2.13-3.89,11.83-6.65c8.86-2.53,20.69-3.92,33.33-3.92m0-3.23C21.66,34.59,0,40.76,0,48.38s21.66,13.8,48.38,13.8S96.76,56,96.76,48.38,75.1,34.59,48.38,34.59Z"/><path class="cls-1" d="M48.38,3.23c.91,0,3.89,2.13,6.65,11.83C57.56,23.91,59,35.75,59,48.38S57.56,72.85,55,81.71c-2.77,9.7-5.74,11.83-6.65,11.83s-3.89-2.13-6.65-11.83C39.2,72.85,37.81,61,37.81,48.38s1.39-24.47,3.92-33.33c2.77-9.7,5.74-11.83,6.65-11.83m0-3.23c-7.62,0-13.8,21.66-13.8,48.38s6.18,48.38,13.8,48.38,13.8-21.66,13.8-48.38S56,0,48.38,0Z"/><path class="cls-1" d="M48.38,3.23c17,0,30.79,20.26,30.79,45.16S65.36,93.54,48.38,93.54,17.59,73.28,17.59,48.38,31.4,3.23,48.38,3.23m0-3.23c-18.79,0-34,21.66-34,48.38s15.23,48.38,34,48.38,34-21.66,34-48.38S67.17,0,48.38,0Z"/></g></g></svg>