<svg xmlns="http://www.w3.org/2000/svg" viewBox="0 0 90 90"><title>icon</title><g id="Layer_2" data-name="Layer 2"><g id="Layer_1-2" data-name="Layer 1"><path d="M45,5A40,40,0,1,1,5,45,40,40,0,0,1,45,5m0-5A45,45,0,1,0,90,45,45,45,0,0,0,45,0Z"/><path d="M45,5c6.78,0,13.27,3.93,18.28,11.06C68.67,23.72,71.64,34,71.64,45s-3,21.28-8.36,28.94C58.27,81.07,51.78,85,45,85S31.73,81.07,26.72,73.94C21.33,66.28,18.36,56,18.36,45s3-21.28,8.36-28.94C31.73,8.93,38.22,5,45,5m0-5C27.53,0,13.36,20.15,13.36,45S27.53,90,45,90,76.64,69.85,76.64,45,62.47,0,45,0Z"/><path d="M45,5.25c1,1,3,4.16,4.82,11.38a122.38,122.38,0,0,1,3,28.37,122.39,122.39,0,0,1-3,28.37C48,80.58,46,83.76,45,84.75c-1-1-3-4.16-4.82-11.38a122.39,122.39,0,0,1-3-28.37,122.38,122.38,0,0,1,3-28.37C42,9.42,44,6.24,45,5.25M45,0C37.91,0,32.17,20.15,32.17,45S37.91,90,45,90,57.83,69.85,57.83,45,52.09,0,45,0Z"/><path d="M45,37.17a122.38,122.38,0,0,1,28.37,3C80.58,42,83.76,44,84.75,45c-1,1-4.16,3-11.38,4.82a122.38,122.38,0,0,1-28.37,3,122.39,122.39,0,0,1-28.37-3C9.42,48,6.24,46,5.25,45c1-1,4.16-3,11.38-4.82a122.39,122.39,0,0,1,28.37-3m0-5C20.15,32.17,0,37.91,0,45S20.15,57.83,45,57.83,90,52.09,90,45,69.85,32.17,45,32.17Z"/><path d="M45,18.36c11,0,21.28,3,28.94,8.36C81.07,31.73,85,38.22,85,45S81.07,58.27,73.94,63.28C66.28,68.67,56,71.64,45,71.64s-21.28-3-28.94-8.36C8.93,58.27,5,51.78,5,45S8.93,31.73,16.06,26.72C23.72,21.33,34,18.36,45,18.36m0-5C20.15,13.36,0,27.53,0,45S20.15,76.64,45,76.64,90,62.47,90,45,69.85,13.36,45,13.36Z"/></g></g></svg>