<svg xmlns="http://www.w3.org/2000/svg" viewBox="0 0 100.57 155.11"><defs><style>.cls-1,.cls-4{fill:#d0d2d2;}.cls-2{fill:#4f4f4f;stroke-width:4.68px;}.cls-2,.cls-4,.cls-6{stroke:#000;stroke-linecap:round;stroke-linejoin:round;}.cls-3{fill:#ababab;}.cls-4,.cls-6{stroke-width:5.46px;}.cls-5{fill:#fff;opacity:0.5;}.cls-6{fill:none;}.cls-7{opacity:0.2;}</style></defs><title>Asset 4</title><g id="Layer_2" data-name="Layer 2"><g id="Layer_1-2" data-name="Layer 1"><polygon class="cls-1" points="92.97 82.28 8.14 82.28 2.73 91.35 8.66 100.45 92.18 100.45 97.84 91.35 92.97 82.28"/><polyline class="cls-1" points="97.84 91.35 50.28 2.73 2.73 91.35"/><path class="cls-2" d="M45.21,120.8"/><path class="cls-2" d="M92.18,121.5"/><path class="cls-1" d="M2.73,91.35S11,103.88,26.9,128.69H72.71s9.19-12.53,25.13-37.35"/><polyline class="cls-3" points="26.89 128.69 26.89 152.38 73.67 152.38 73.67 128.69"/><line class="cls-4" x1="97.84" y1="91.35" x2="50.28" y2="2.73"/><polygon class="cls-5" points="52.51 20.52 50.28 2.73 3.32 91.38 27.48 128.69 27.09 152.38 39.18 152.38 39.57 128.69 15.39 91.31 52.51 20.52"/><path class="cls-1" d="M2.73,91.35S11,103.88,26.9,128.69"/><path class="cls-6" d="M2.73,91.35S11,103.88,26.9,128.69"/><line class="cls-1" x1="50.28" y1="2.73" x2="2.73" y2="91.35"/><line class="cls-6" x1="50.28" y1="2.73" x2="2.73" y2="91.35"/><polyline class="cls-6" points="26.89 128.69 26.89 152.38 73.67 152.38 73.67 128.69"/><line class="cls-6" x1="10.52" y1="128.69" x2="90.04" y2="128.69"/><circle cx="50.28" cy="91.35" r="6.14"/><polygon class="cls-7" points="50.11 23.32 50.28 2.73 97.84 91.38 73.67 128.69 74.06 152.38 61.98 152.38 61.59 128.69 85.77 91.31 50.11 23.32"/><line class="cls-6" x1="50.28" y1="91.35" x2="50.28" y2="2.73"/><line class="cls-4" x1="97.84" y1="91.38" x2="73.67" y2="128.69"/></g></g></svg>