<svg xmlns="http://www.w3.org/2000/svg" viewBox="0 0 113.03 113.03"><defs><style>.cls-1{fill:#d1d1d1;}.cls-2{opacity:0.2;}.cls-3{fill:none;}.cls-3,.cls-4{stroke:#000;stroke-linecap:round;stroke-linejoin:round;stroke-width:7px;}.cls-4{fill:#898989;}</style></defs><title>Asset 2</title><g id="Layer_2" data-name="Layer 2"><g id="Layer_1-2" data-name="Layer 1"><polygon class="cls-1" points="109.53 109.53 3.5 109.53 3.5 22.17 22.35 22.17 22.48 6.71 85.71 6.71 109.53 22.17 109.53 109.53"/><path class="cls-2" d="M83.88,6.71h7.9a0,0,0,0,1,0,0V25.65a0,0,0,0,1,0,0H86.51A2.62,2.62,0,0,1,83.88,23V6.71A0,0,0,0,1,83.88,6.71Z"/><path class="cls-2" d="M15,102.37h3.26V22.17H12.4v78A2.45,2.45,0,0,0,15,102.37Z"/><polyline class="cls-3" points="19.19 98.85 19.19 3.5 89.82 3.5 89.82 22.17 109.53 22.17 109.53 109.53 39.09 109.53"/><polygon class="cls-3" points="109.53 22.17 89.82 22.17 89.82 3.5 109.53 22.17"/><path class="cls-4" d="M109.53,19.19"/><polyline class="cls-3" points="19.19 22.17 3.5 22.17 3.92 109.53 62.01 109.53"/></g></g></svg>